<?xml version="1.0" standalone="no"?><!DOCTYPE svg PUBLIC "-//W3C//DTD SVG 1.1//EN" "http://www.w3.org/Graphics/SVG/1.1/DTD/svg11.dtd"><svg t="1618079458271" class="icon" viewBox="0 0 1024 1024" version="1.1" xmlns="http://www.w3.org/2000/svg" p-id="2053" xmlns:xlink="http://www.w3.org/1999/xlink" width="200" height="200"><defs><style type="text/css"></style></defs><path d="M737.450667 151.04V209.92h-57.173334V151.04h57.173334zM737.450667 261.632v58.88h-57.173334v-58.88h57.173334zM737.450667 372.053333v58.88h-57.173334V372.053333h57.173334zM737.450667 482.474667v58.88h-57.173334v-58.88h57.173334zM737.450667 593.066667V651.946667h-57.173334v-58.88h57.173334zM737.450667 703.488v58.88h-57.173334v-58.88h57.173334zM737.450667 814.08v58.88h-57.173334V814.08h57.173334z" p-id="2054" fill="#d81e06"></path><path d="M888.149333 950.784H135.850667C60.928 950.784 0 890.709333 0 816.810667v-136.021334l31.061333-14.506666c60.586667-28.330667 99.669333-88.746667 99.669334-154.282667 0-65.536-39.082667-126.122667-99.669334-154.282667L0 343.210667v-136.021334c0-73.898667 60.928-133.973333 135.850667-133.973333h752.469333c74.922667 0 135.850667 60.074667 135.850667 133.973333v136.704l-30.549334 14.677334c-60.586667 29.013333-98.133333 87.893333-98.133333 153.6s37.546667 124.586667 98.133333 153.6l30.549334 14.677333v136.704c-0.170667 73.557333-61.098667 133.632-136.021334 133.632zM57.173333 717.141333v99.669334c0 42.325333 35.328 76.8 78.677334 76.8h752.469333c43.349333 0 78.677333-34.474667 78.677333-76.8v-100.693334c-79.530667-38.912-128.682667-116.906667-128.682666-204.117333 0-87.210667 49.322667-165.376 128.682666-204.117333v-100.693334c0-42.325333-35.328-76.8-78.677333-76.8H135.850667c-43.349333 0-78.677333 34.474667-78.677334 76.8v99.669334c79.530667 38.058667 130.730667 118.272 130.730667 205.141333 0 86.869333-51.2 167.253333-130.730667 205.141333z" p-id="2055" fill="#d81e06"></path><path d="M441.514667 499.712v216.576h-44.032V499.712h-109.226667l0.682667-41.813333h95.573333l-121.856-150.186667h54.101333l102.570667 128.170667 95.402667-128.170667H568.32l-113.322667 150.186667h94.037334l0.853333 41.813333z" p-id="2056" fill="#d81e06"></path><path d="M288.938667 564.224h260.949333v41.813333H288.938667z" p-id="2057" fill="#d81e06"></path></svg>