<?xml version="1.0" standalone="no"?><!DOCTYPE svg PUBLIC "-//W3C//DTD SVG 1.1//EN" "http://www.w3.org/Graphics/SVG/1.1/DTD/svg11.dtd"><svg t="1618079619837" class="icon" viewBox="0 0 1163 1024" version="1.1" xmlns="http://www.w3.org/2000/svg" p-id="4826" xmlns:xlink="http://www.w3.org/1999/xlink" width="227.1484375" height="200"><defs><style type="text/css"></style></defs><path d="M0 1010.452589c50.972386-260.109086 266.105838-457.252284 522.466955-478.240914a66.863777 66.863777 0 0 1 16.491066-2.248781h47.224416l-5.996751 62.216294H554.699493a69.337437 69.337437 0 0 0-22.487818 2.248782h-3.747969c-230.874924 16.491066-425.019746 193.395229-469.995381 429.51731" fill="#1afa29" p-id="4827"></path><path d="M571.940153 580.935279a287.094467 287.094467 0 1 1 287.094467-287.094467 288.593655 288.593655 0 0 1-287.094467 287.094467z m0-529.213299a242.118833 242.118833 0 1 0 242.118832 242.118832A241.519157 241.519157 0 0 0 571.940153 51.72198z" fill="#1afa29" p-id="4828"></path><path d="M571.940153 587.681625a293.840812 293.840812 0 1 1 293.840812-293.840813 293.391056 293.391056 0 0 1-293.840812 293.840813z m0-574.938529a281.097716 281.097716 0 1 0 281.097715 281.097716A281.172675 281.172675 0 0 0 571.940153 12.743096z m0 529.962894a248.865178 248.865178 0 1 1 248.865177-248.865178 248.715259 248.715259 0 0 1-248.865177 248.865178z m0-484.987259a236.122081 236.122081 0 1 0 236.122081 236.122081A237.021594 237.021594 0 0 0 571.940153 57.718731z" fill="#1afa29" p-id="4829"></path><path d="M591.729432 1023.94528h513.09703c31.482944 0 58.543284-24.66164 58.543285-53.446046v-47.224416a54.345558 54.345558 0 0 0-47.224417-51.347183c-31.482944-6.14667-54.045721-30.80831-54.04572-59.592716a61.466701 61.466701 0 0 1 54.04572-59.592716 54.345558 54.345558 0 0 0 47.224417-51.347182v-49.32328c0-28.784406-26.985381-53.446046-58.543285-53.446045H591.729432c-31.482944 0-58.543284 24.66164-58.543285 53.446045v47.224417a54.345558 54.345558 0 0 0 47.224417 51.347182c31.482944 6.14667 54.045721 30.80831 54.045721 59.592716a61.466701 61.466701 0 0 1-54.045721 59.592716 54.345558 54.345558 0 0 0-47.224417 51.347183v47.224416a56.069624 56.069624 0 0 0 58.543285 55.544909z m105.7677-213.634264c0-55.469949-42.726853-104.943147-101.270137-117.086569l-2.248782-36.95498 499.604341-2.023903v36.954979c-58.543284 14.392203-101.270137 61.616619-101.270137 117.086569s42.726853 104.943147 101.270137 117.086569l2.248782 36.954979-499.604341 2.023904-2.248782-36.95498c60.792066-10.269437 103.518919-59.592716 103.518919-117.086568z" fill="#1afa29" p-id="4830"></path><path d="M767.284325 785.649376H929.496447c17.990254 0 33.731726-12.29334 33.731726-28.784406a33.20701 33.20701 0 0 0-33.731726-30.80831h-162.212122a33.20701 33.20701 0 0 0-33.731726 30.80831c0 16.416107 16.04131 28.784406 33.731726 28.784406z m0 110.939899H929.496447a30.958228 30.958228 0 1 0 0-61.61662h-162.212122a30.958228 30.958228 0 1 0 0 61.61662z" fill="#1afa29" p-id="4831"></path></svg>